<?xml version="1.0" encoding="UTF-8"?>
<!-- Svg Vector Icons : http://www.onlinewebfonts.com/icon -->
<!DOCTYPE svg PUBLIC "-//W3C//DTD SVG 1.1//EN" "http://www.w3.org/Graphics/SVG/1.1/DTD/svg11.dtd">
<svg version="1.1" xmlns="http://www.w3.org/2000/svg" xmlns:xlink="http://www.w3.org/1999/xlink" x="0px" y="0px" viewBox="0 0 1000 1000" enable-background="new 0 0 1000 1000" xml:space="preserve">
<metadata> Svg Vector Icons : http://www.onlinewebfonts.com/icon </metadata>
<g><path d="M928.8,438.8C928.8,202.3,736.4,10,500,10C263.6,10,71.2,202.3,71.2,438.8c0,215.6,160,394.5,367.5,424.3v35.1H316.2c-23.6,0-45.9,22.3-45.9,45.9c0,23.6,22.3,45.9,45.9,45.9h368.2c25,0,45.3-20.3,45.3-45.2c0-25.7-20.9-46.6-46.6-46.6H561.3v-35.1C768.7,833.2,928.8,654.4,928.8,438.8z M683.1,928.7c8.8,0,16,7.2,16,16c0,8.1-6.6,14.6-14.6,14.6H316.2c-6.7,0-15.3-8.6-15.3-15.3c0-6.7,8.6-15.3,15.3-15.3L683.1,928.7L683.1,928.7z M469.4,898.1v-31.8c10.1,0.7,20.3,1.2,30.6,1.2c10.3,0,20.5-0.5,30.6-1.2v31.8H469.4z M500,836.9c-219.5,0-398.1-178.6-398.1-398.1S280.5,40.6,500,40.6s398.1,178.6,398.1,398.1C898.1,658.3,719.5,836.9,500,836.9z M824.7,420.5c-0.4-58.9-30.4-137.6-86.9-174c-86.2-55.5-166.2-19.4-207.3,41c-13.9,20.5-25.7,50.4-33.2,75c-10.2,0.4-19.8,2.6-28.6,6.6c-7.1-11.6-13.9-29.2-9.9-77.7c0.2-2.9,0.6-6,0.9-9.4c3.5-34.8,10.1-99.4-49-125c-29.3-12.7-65.3-6.5-101.4,17.4C260,206.9,210.5,275,210.8,342.2c0.5,102.5,74.5,149.9,147.5,151.3c0.9,0,1.8,0,2.7,0c25.8,0,54.8-6.9,75.1-12.8c4.6,7,10.4,13,17,18.1c-8.3,12.7-22.6,28.9-68.3,46.8c-2.7,1.1-5.7,2.2-8.9,3.3c-32.8,12.1-93.7,34.7-90.6,99c1.5,31.9,22.9,61.5,60.2,83.4c31.3,18.4,74.7,30.9,117.5,30.9c26.8,0,53.3-4.9,76.5-16.4c91.9-45.6,101.8-132.8,71-199c-11.2-24.1-32.5-49.6-46.9-65.5c6.7-9.9,10.7-21.5,12.1-34c13.5,0.7,31.3,5,69.3,34.5c2.3,1.8,4.8,3.8,7.4,5.9c19.5,15.7,51.1,41.2,87.1,41.2c14.2,0,29.2-4,44.3-14C810.5,497.3,825,463.7,824.7,420.5z M423.4,438.8c0,4.6,0.6,9,1.3,13.3c-18.8,5.4-44.3,11.3-65.9,10.8c-53.9-1-117-33.3-117.5-120.8c-0.3-48.9,36.1-110,84.7-142.1c15.7-10.4,46.1-26.2,72.4-14.8c35.5,15.4,34.8,53.1,30.7,93.8c-0.4,3.6-0.7,6.9-1,10c-5.1,61.1,6.1,83.4,15.6,98.3C431.3,400.8,423.4,418.8,423.4,438.8z M500,392.8c25.3,0,45.9,20.6,45.9,45.9c0,25.3-20.6,45.9-45.9,45.9s-45.9-20.6-45.9-45.9C454.1,413.4,474.7,392.8,500,392.8z M582.7,559.7c22.8,48.9,21.6,119.7-56.8,158.6c-43.8,21.7-114.7,15.9-164.9-13.5c-16.3-9.6-43.8-29.9-45.2-58.5c-1.9-38.7,32.4-54.6,70.7-68.8c3.4-1.2,6.5-2.4,9.4-3.5c57.9-22.7,74.7-45.4,84.6-61.5c6.2,1.7,12.7,2.8,19.4,2.8c15.4,0,29.7-4.7,41.7-12.5C554.2,516.7,573.3,539.5,582.7,559.7z M766.9,489.4c-32.3,21.4-63.5,0.2-95.3-25.5c-2.8-2.2-5.4-4.4-7.8-6.2c-46.1-35.8-69.2-40.5-90.9-41c-6.8-22.5-23.5-40.6-45.2-49.1c6.7-21.1,16.7-46.2,28.1-62.9c30.3-44.6,91.8-79.9,165.4-32.5c41.1,26.5,72.5,90.3,72.9,148.5C794.2,439.5,790.8,473.6,766.9,489.4z"/></g>
</svg>